<?xml version="1.0" encoding="UTF-8"?>
<svg width="32px" height="32px" viewBox="0 0 32 32" version="1.1" xmlns="http://www.w3.org/2000/svg" xmlns:xlink="http://www.w3.org/1999/xlink">
    <!-- Generator: Sketch 46.2 (44496) - http://www.bohemiancoding.com/sketch -->
    <title>note copy</title>
    <desc>Created with Sketch.</desc>
    <defs></defs>
    <g id="Symbols" stroke="none" stroke-width="1" fill="none" fill-rule="evenodd">
        <g id="sidemenu" transform="translate(-39.000000, -191.000000)" fill-rule="nonzero" fill="#ABABAB">
            <g id="note-copy" transform="translate(39.000000, 191.000000)">
                <path d="M23.5,13 C23.223875,13 23,13.223875 23,13.5 L23,29.5 C23,30.327125 22.327125,31 21.5,31 L2.5,31 C1.672875,31 1,30.327125 1,29.5 L1,10.5 C1,9.672875 1.672875,9 2.5,9 L18.5,9 C18.776125,9 19,8.776125 19,8.5 C19,8.223875 18.776125,8 18.5,8 L2.5,8 C1.1215,8 0,9.1215 0,10.5 L0,29.5 C0,30.8785 1.1215,32 2.5,32 L21.5,32 C22.8785,32 24,30.8785 24,29.5 L24,13.5 C24,13.223875 23.776125,13 23.5,13 Z" id="Shape"></path>
                <path d="M31.3881201,0.6122065 C30.9936495,0.217409368 30.4689945,0 29.9107814,0 C29.3525683,0 28.8279133,0.217409368 28.4336386,0.612075924 L11.6566255,17.389028 C11.6070719,17.4385817 11.5679643,17.4976021 11.5417185,17.5625638 L10.0380687,21.2819615 C9.95952716,21.4763242 10.0047718,21.698826 10.1529757,21.84703 C10.2528665,21.9469208 10.3864459,22 10.5223757,22 C10.5882514,22 10.6546494,21.9875953 10.7180441,21.961937 L14.4374408,20.4582868 C14.5024024,20.432041 14.5614229,20.3929335 14.6109765,20.3433798 L31.3879242,3.56649296 C31.7825907,3.17189169 32,2.64730182 32,2.08921915 C32,1.53113649 31.7825907,1.00654662 31.3881201,0.6122065 Z M14.304906,19.1721766 L12.8278284,17.6950986 L28.2806033,2.24231975 L29.7576808,3.71939769 L14.304906,19.1721766 Z M12.2508777,18.5954868 L13.4045181,19.7491275 L11.467943,20.5320624 L12.2508777,18.5954868 Z M30.6493202,2.82775813 L30.4963502,2.98072814 L29.0192726,1.5036502 L29.1724385,1.35048432 C29.3694779,1.15324897 29.6317401,1.04460958 29.9107814,1.04460958 C30.1898227,1.04460958 30.4520849,1.15324897 30.6493855,1.35074547 C30.846686,1.54798082 30.9553907,1.8103084 30.9553907,2.08921915 C30.9553907,2.36812991 30.846686,2.63045749 30.6493202,2.82775813 Z" id="Shape"></path>
                <path d="M14,12.5 C14,12.223875 13.7964773,12 13.5454545,12 L4.45454545,12 C4.20352273,12 4,12.223875 4,12.5 C4,12.776125 4.20352273,13 4.45454545,13 L13.5454545,13 C13.7964773,13 14,12.776125 14,12.5 Z" id="Shape"></path>
                <path d="M9.57142857,18 L4.42857143,18 C4.19189286,18 4,18.223875 4,18.5 C4,18.776125 4.19189286,19 4.42857143,19 L9.57142857,19 C9.80810714,19 10,18.776125 10,18.5 C10,18.223875 9.80810714,18 9.57142857,18 Z" id="Shape"></path>
                <path d="M4,22.5 C4,22.776125 4.23786719,23 4.53125,23 L20.46875,23 C20.7621328,23 21,22.776125 21,22.5 C21,22.223875 20.7621328,22 20.46875,22 L4.53125,22 C4.23786719,22 4,22.223875 4,22.5 Z" id="Shape"></path>
                <path d="M20.46875,27 L4.53125,27 C4.23786719,27 4,27.223875 4,27.5 C4,27.776125 4.23786719,28 4.53125,28 L20.46875,28 C20.7621328,28 21,27.776125 21,27.5 C21,27.223875 20.7621328,27 20.46875,27 Z" id="Shape"></path>
            </g>
        </g>
    </g>
</svg>