<?xml version="1.0" encoding="UTF-8"?>
<svg width="32px" height="38px" viewBox="0 0 32 38" version="1.1" xmlns="http://www.w3.org/2000/svg" xmlns:xlink="http://www.w3.org/1999/xlink">
    <!-- Generator: Sketch 46.2 (44496) - http://www.bohemiancoding.com/sketch -->
    <title>Group 9</title>
    <desc>Created with Sketch.</desc>
    <defs></defs>
    <g id="Symbols" stroke="none" stroke-width="1" fill="none" fill-rule="evenodd">
        <g id="consult" transform="translate(-10.000000, -1.000000)" fill-rule="nonzero" fill="#2979FF">
            <g id="Group-9" transform="translate(10.084233, 1.544276)">
                <g id="stethoscope" transform="translate(0.674725, 0.369119)">
                    <path d="M25.5543802,7.41135701 C22.4273368,7.41135701 19.8829952,9.91069008 19.8829952,12.9829133 C19.8829952,15.8185984 22.0523794,18.1616257 24.8455229,18.505949 L24.8455229,27.6536501 C24.8455229,31.9018059 21.3472067,35.3580354 17.0473904,35.3580354 C12.7475742,35.3580354 9.24925804,31.902499 9.24925804,27.6546899 L9.24925804,20.7947371 C13.6090815,20.4368974 17.0473904,16.8222826 17.0473904,12.4230197 L17.0473904,9.6327361 C17.0473904,9.50242351 17.0445831,9.37367051 17.038442,9.24474423 C17.0377402,9.22880173 17.0291426,9.21563184 17.027388,9.19986263 C17.0324764,9.16641804 17.0473904,9.1366125 17.0473904,9.10178161 L17.0473904,3.85080812 C17.0473904,3.63818372 16.9498348,3.43716962 16.7815689,3.304431 L14.6444694,1.61313996 L15.0675028,1.19534255 C15.3443783,0.921894056 15.3443783,0.478796596 15.0675028,0.205174817 C14.7906273,-0.0684469617 14.3419768,-0.0682736737 14.0649259,0.205174817 L11.2289702,3.00585575 C10.9520948,3.27930424 10.9520948,3.7224017 11.2289702,3.99602348 C11.3674079,4.13274772 11.5488333,4.20119649 11.7302587,4.20119649 C11.911684,4.20119649 12.0929339,4.13274772 12.2315471,3.99602348 L13.6359268,2.60902619 L15.6295003,4.18681359 L15.6295003,9.1019549 C15.6295003,9.12378919 15.6402034,9.14215772 15.6421334,9.16364544 C15.637396,9.19171809 15.6233592,9.21632499 15.6219556,9.24561067 C15.4501805,12.9934839 12.3396303,15.9291562 8.54022525,15.9291562 C4.74082018,15.9291562 1.63009456,12.9934839 1.45831948,9.24578396 C1.4569158,9.21667157 1.44287902,9.19189138 1.43796615,9.16364544 C1.44007166,9.14215772 1.45059925,9.1236159 1.45059925,9.10178161 L1.45059925,4.18681359 L3.44417274,2.60902619 L4.84855245,3.99602348 C4.98699018,4.13274772 5.16841555,4.20119649 5.34984091,4.20119649 C5.53126628,4.20119649 5.71251618,4.13274772 5.85112937,3.99602348 C6.12800483,3.72257499 6.12800483,3.27947753 5.85112937,3.00585575 L3.01534915,0.205348105 C2.73847369,-0.0681003857 2.28982316,-0.0681003857 2.01277224,0.205348105 C1.73572132,0.478796596 1.73589678,0.921894056 2.01277224,1.19551583 L2.43580565,1.61331324 L0.298706096,3.30460429 C0.130440212,3.43734291 0.0328845996,3.63835701 0.0328845996,3.85098141 L0.0328845996,9.10212819 C0.0328845996,9.13695908 0.0479741367,9.1671112 0.053062469,9.20055578 C0.0511324119,9.21632499 0.0427103447,9.22932159 0.0420085057,9.24543738 C0.0356919553,9.37367051 0.0330600593,9.50328995 0.0330600593,9.63308267 L0.0330600593,12.423193 C0.0330600593,16.8224559 3.471369,20.4370707 7.83119247,20.7949104 L7.83119247,27.6548632 C7.83119247,32.6744972 11.9657256,36.7585491 17.047215,36.7585491 C22.1287043,36.7585491 26.2632375,32.6741506 26.2632375,27.6538234 L26.2632375,18.5061223 C29.056381,18.1614524 31.2257652,15.8184252 31.2257652,12.9829133 C31.2257652,9.91086337 28.6814236,7.41135701 25.5543802,7.41135701 Z M1.58289589,13.7725868 C3.12395873,15.9315822 5.66759849,17.3294967 8.54004979,17.3294967 C11.4117993,17.3294967 13.9559654,15.9312357 15.4972037,13.7722402 C14.859583,16.9922782 11.9823943,19.4299207 8.54004979,19.4299207 C5.09770528,19.4299207 2.22051656,16.9929713 1.58289589,13.7725868 Z M25.5542047,17.1539559 C23.208659,17.1539559 21.3007099,15.2827919 21.3007099,12.98274 C21.3007099,10.6826882 23.208659,8.81152418 25.5542047,8.81152418 C27.8997504,8.81152418 29.8076996,10.6826882 29.8076996,12.98274 C29.8076996,15.2827919 27.8999259,17.1539559 25.5542047,17.1539559 Z" id="Shape"></path>
                    <path d="M25.5542047,10.195229 C23.9901567,10.195229 22.7184245,11.4458486 22.7184245,12.9830866 C22.7184245,14.5203246 23.9901567,15.7709442 25.5542047,15.7709442 C27.1182528,15.7709442 28.3899849,14.5203246 28.3899849,12.9830866 C28.3899849,11.4458486 27.1182528,10.195229 25.5542047,10.195229 Z M25.5542047,14.3707771 C24.7725316,14.3707771 24.1363146,13.7481532 24.1363146,12.9830866 C24.1363146,12.21802 24.7725316,11.5953962 25.5542047,11.5953962 C26.3358778,11.5953962 26.9720948,12.21802 26.9720948,12.9830866 C26.9720948,13.7481532 26.3358778,14.3707771 25.5542047,14.3707771 Z" id="Shape"></path>
                </g>
            </g>
        </g>
    </g>
</svg>