<?xml version="1.0" encoding="UTF-8"?>
<svg width="30px" height="32px" viewBox="0 0 30 32" version="1.1" xmlns="http://www.w3.org/2000/svg" xmlns:xlink="http://www.w3.org/1999/xlink">
    <!-- Generator: Sketch 46.2 (44496) - http://www.bohemiancoding.com/sketch -->
    <title>alarm</title>
    <desc>Created with Sketch.</desc>
    <defs></defs>
    <g id="Symbols" stroke="none" stroke-width="1" fill="none" fill-rule="evenodd">
        <g id="er" transform="translate(-11.000000, -5.000000)" fill-rule="nonzero" fill="#2979FF">
            <g id="alarm" transform="translate(11.341335, 5.334622)">
                <path d="M24.17293,24.6877896 L23.8185819,24.6877896 L23.8185819,15.8066106 C23.8185819,10.7041058 19.6674586,6.5529825 14.5649538,6.5529825 C9.46244895,6.5529825 5.31132564,10.7041058 5.31132564,15.8066106 L5.31132564,24.6877896 L4.95697754,24.6877896 C3.20903205,24.6877896 1.7869046,26.1098571 1.7869046,27.8578625 L1.7869046,30.6878524 L27.3430029,30.6878524 L27.3430029,27.8578026 C27.342943,26.1098571 25.9209354,24.6877896 24.17293,24.6877896 Z M7.13443225,15.8066106 C7.13443225,11.7094307 10.4677738,8.37602917 14.5650137,8.37602917 C18.6622535,8.37602917 21.9955951,11.7094307 21.9955951,15.8066106 L21.9955951,24.6877896 L7.13443225,24.6877896 L7.13443225,15.8066106 Z M25.5199562,28.8646859 L25.5199562,28.8646859 L3.60995127,28.8646859 L3.60995127,27.8578026 C3.60995127,27.1150621 4.21417713,26.5107763 4.95697754,26.5107763 L5.31132564,26.5107763 L23.8185819,26.5107763 L24.17293,26.5107763 C24.9156704,26.5107763 25.5199562,27.1150022 25.5199562,27.8578026 L25.5199562,28.8646859 Z" id="Shape"></path>
                <path d="M14.5649538,9.28761244 L14.5649538,11.110719 C17.1542962,11.110719 19.2609052,13.2173281 19.2609052,15.8066705 L21.0840119,15.8066705 C21.0839519,12.2120632 18.1595012,9.28761244 14.5649538,9.28761244 Z" id="Shape"></path>
                <rect id="Rectangle-path" x="13.6537301" y="0" width="1.82310661" height="5.13499071"></rect>
                <rect id="Rectangle-path" transform="translate(23.599275, 6.309793) rotate(-45.000000) translate(-23.599275, -6.309793) " x="21.0318347" y="5.39827862" width="5.13488153" height="1.82302919"></rect>
                <rect id="Rectangle-path" transform="translate(5.530613, 6.310065) rotate(-45.000000) translate(-5.530613, -6.310065) " x="4.61909848" y="3.74262396" width="1.82302919" height="5.13488153"></rect>
                <rect id="Rectangle-path" transform="translate(9.676188, 3.540401) rotate(-22.500428) translate(-9.676188, -3.540401) " x="8.76461127" y="0.972780387" width="1.82315264" height="5.13524025"></rect>
                <rect id="Rectangle-path" transform="translate(19.454780, 3.539795) rotate(-67.499572) translate(-19.454780, -3.539795) " x="16.8871599" y="2.62821829" width="5.13524025" height="1.82315264"></rect>
                <rect id="Rectangle-path" transform="translate(26.369622, 10.454737) rotate(-22.500428) translate(-26.369622, -10.454737) " x="23.8020021" y="9.54316098" width="5.13524025" height="1.82315264"></rect>
                <rect id="Rectangle-path" transform="translate(2.760829, 10.455096) rotate(-67.499572) translate(-2.760829, -10.455096) " x="1.84925308" y="7.88747559" width="1.82315264" height="5.13524025"></rect>
            </g>
        </g>
    </g>
</svg>