<?xml version="1.0" encoding="UTF-8"?>
<svg width="84px" height="84px" viewBox="0 0 84 84" version="1.1" xmlns="http://www.w3.org/2000/svg" xmlns:xlink="http://www.w3.org/1999/xlink">
    <!-- Generator: Sketch 46.2 (44496) - http://www.bohemiancoding.com/sketch -->
    <title>error(1)</title>
    <desc>Created with Sketch.</desc>
    <defs></defs>
    <g id="Page-1" stroke="none" stroke-width="1" fill="none" fill-rule="evenodd">
        <g id="LOA-Cancellation-Failed-" transform="translate(-598.000000, -152.000000)" fill-rule="nonzero" fill="#E75042">
            <g id="error(1)" transform="translate(598.000000, 152.000000)">
                <path d="M42,0 C18.8418462,0 0,18.8402308 0,42 C0,65.1597692 18.8418462,84 42,84 C65.1581538,84 84,65.1597692 84,42 C84,18.8402308 65.1581538,0 42,0 Z M42,80.7692308 C20.6236154,80.7692308 3.23076923,63.3763846 3.23076923,42 C3.23076923,20.6236154 20.6236154,3.23076923 42,3.23076923 C63.3763846,3.23076923 80.7692308,20.6236154 80.7692308,42 C80.7692308,63.3763846 63.3763846,80.7692308 42,80.7692308 Z" id="Shape"></path>
                <path d="M57.6805385,26.3194615 C57.0489231,25.6878462 56.028,25.6878462 55.3963846,26.3194615 L42,39.7158462 L28.6036154,26.3194615 C27.972,25.6878462 26.9510769,25.6878462 26.3194615,26.3194615 C25.6878462,26.9510769 25.6878462,27.972 26.3194615,28.6036154 L39.7158462,42 L26.3194615,55.3963846 C25.6878462,56.028 25.6878462,57.0489231 26.3194615,57.6805385 C26.6344615,57.9955385 27.048,58.1538462 27.4615385,58.1538462 C27.8750769,58.1538462 28.2886154,57.9955385 28.6036154,57.6805385 L42,44.2841538 L55.3963846,57.6805385 C55.7113846,57.9955385 56.1249231,58.1538462 56.5384615,58.1538462 C56.952,58.1538462 57.3655385,57.9955385 57.6805385,57.6805385 C58.3121538,57.0489231 58.3121538,56.028 57.6805385,55.3963846 L44.2841538,42 L57.6805385,28.6036154 C58.3121538,27.972 58.3121538,26.9510769 57.6805385,26.3194615 Z" id="Shape"></path>
            </g>
        </g>
    </g>
</svg>