<?xml version="1.0" encoding="UTF-8"?>
<svg width="40px" height="28px" viewBox="0 0 40 28" version="1.1" xmlns="http://www.w3.org/2000/svg" xmlns:xlink="http://www.w3.org/1999/xlink">
    <!-- Generator: Sketch 46.2 (44496) - http://www.bohemiancoding.com/sketch -->
    <title>bed</title>
    <desc>Created with Sketch.</desc>
    <defs></defs>
    <g id="Symbols" stroke="none" stroke-width="1" fill="none" fill-rule="evenodd">
        <g id="ip" transform="translate(-7.000000, -7.000000)" fill-rule="nonzero" fill="#2979FF">
            <g id="bed" transform="translate(7.000000, 7.000000)">
                <path d="M19.4634206,6.09926737 L21.4371566,6.09926737 C21.6932042,6.09926737 21.9006549,6.3067958 21.9006549,6.56276566 L21.9006549,8.53650171 C21.9006549,8.79254933 22.1081833,9 22.3642309,9 L24.6355358,9 C24.8915834,8.99992224 25.0991119,8.79239382 25.0991119,8.53650171 L25.0991119,6.56276566 C25.0991119,6.30671804 25.3066403,6.09918962 25.5626879,6.09918962 L27.536424,6.09918962 C27.7924716,6.09918962 28,5.8916612 28,5.63569133 L28,3.36430867 C28,3.10826105 27.7924716,2.90081038 27.536424,2.90081038 L25.5626879,2.90081038 C25.3066403,2.90081038 25.0991119,2.69328196 25.0991119,2.43723434 L25.0991119,0.463576045 C25.0991119,0.207528424 24.8915834,0 24.6355358,0 L22.3643087,0 C22.1082611,0 21.9007326,0.207528424 21.9007326,0.463576045 L21.9007326,2.43731209 C21.9007326,2.69335971 21.6932042,2.90088814 21.4372344,2.90088814 L19.4634983,2.90088814 C19.2074507,2.90088814 19,3.10841656 19,3.36438643 L19,5.63569133 C18.9999223,5.89173895 19.2074507,6.09926737 19.4634206,6.09926737 Z" id="Shape"></path>
                <path d="M39.0994584,12.4628598 C38.8328193,12.4628598 15.3035041,12.4628598 14.8096788,12.4628598 C15.8416259,10.3152864 14.2898381,7.80044114 11.9343051,7.80044114 C8.09073384,7.80044114 7.79690744,7.70894032 6.95230301,8.12703722 L6.95230301,6.91373954 C6.95230301,6.40913711 6.54933662,6 6.05199579,6 L0.900307225,6 C0.402966389,6 0,6.40913711 0,6.91373954 L0,27.0862605 C0,27.5908629 0.402966389,28 0.900307225,28 L6.05230829,28 C6.54964912,28 6.95261551,27.5908629 6.95261551,27.0862605 L6.95261551,24.8562254 L33.0473845,24.8562254 L33.0473845,27.0862605 C33.0473845,27.5908629 33.4503509,28 33.9476917,28 L39.0996928,28 C39.5970336,28 40,27.5908629 40,27.0862605 L40,13.37652 C39.9997656,12.8719176 39.5967992,12.4628598 39.0994584,12.4628598 Z M5.15200106,26.1725209 L1.80053632,26.1725209 L1.80053632,7.82739979 L5.15192294,7.82739979 C5.15200106,7.96679185 5.15200106,25.9927702 5.15200106,26.1725209 Z M17.8438017,14.2902596 L33.0472282,14.2902596 L33.0472282,19.7732518 L17.8438017,19.7732518 L17.8438017,14.2902596 Z M8.34916983,9.62776164 L11.9345394,9.62776164 C12.7045349,9.62776164 13.3311719,10.2636685 13.3311719,11.0453107 C13.3311719,11.8269529 12.7046131,12.4627805 11.9345394,12.4627805 L8.34916983,12.4627805 C7.57909622,12.4627805 6.95253739,11.8268736 6.95253739,11.0453107 C6.95253739,10.2637478 7.57909622,9.62776164 8.34916983,9.62776164 Z M6.95253739,14.2902596 C7.98698445,14.2902596 15.0224901,14.2902596 16.0432654,14.2902596 L16.0432654,19.7732518 L6.95253739,19.7732518 L6.95253739,14.2902596 Z M33.0473845,23.0288256 L6.95253739,23.0288256 L6.95253739,21.6006516 C8.20292069,21.6006516 31.7822357,21.6006516 33.0473845,21.6006516 L33.0473845,23.0288256 Z M38.1992293,26.1725209 L34.8478427,26.1725209 C34.8478427,24.7941412 34.8478427,15.5339254 34.8478427,14.2901803 L38.1992293,14.2901803 L38.1992293,26.1725209 Z" id="Shape"></path>
            </g>
        </g>
    </g>
</svg>