<?xml version="1.0" encoding="UTF-8"?>
<svg width="24px" height="28px" viewBox="0 0 24 28" version="1.1" xmlns="http://www.w3.org/2000/svg" xmlns:xlink="http://www.w3.org/1999/xlink">
    <!-- Generator: Sketch 46.2 (44496) - http://www.bohemiancoding.com/sketch -->
    <title>file</title>
    <desc>Created with Sketch.</desc>
    <defs></defs>
    <g id="Symbols" stroke="none" stroke-width="1" fill="none" fill-rule="evenodd">
        <g id="sidemenu" transform="translate(-69.000000, -123.000000)" fill-rule="nonzero" fill="#000000">
            <g id="file" transform="translate(69.000000, 123.000000)">
                <path d="M22.226924,3.70358674 L19.8700663,3.70358674 L19.8700663,1.34678363 C19.8701209,0.606011696 19.264,0 18.5236101,0 L1.35202339,0 C0.611306043,0 0.00529434698,0.606011696 0.00529434698,1.34678363 L0.00529434698,22.8950487 C0.00529434698,23.6357661 0.611306043,24.2418324 1.35207797,24.2418324 L3.70893567,24.2418324 L3.70893567,26.5986901 C3.70893567,27.3394074 4.31467446,27.9454737 5.0557193,27.9454737 L16.5029162,27.9454737 C17.243306,27.9454737 18.2910955,27.5300039 18.8301365,27.0226199 L22.5923431,23.4813021 C23.132039,22.9739181 23.5731072,21.9523821 23.5731072,21.2116647 L23.5737622,5.05047953 C23.5737076,4.30965302 22.9676413,3.70358674 22.226924,3.70358674 Z M3.70882651,5.05042495 L3.70882651,23.2317583 L1.35202339,23.2317583 C1.16955945,23.2317583 1.01536842,23.0775673 1.01536842,22.8951033 L1.01536842,1.34678363 C1.01536842,1.16431969 1.16955945,1.01012865 1.35202339,1.01012865 L18.5236647,1.01012865 C18.7058012,1.01012865 18.8603197,1.16431969 18.8603197,1.34678363 L18.8603197,3.70364133 L5.05561014,3.70364133 C4.3145653,3.70364133 3.70882651,4.30965302 3.70882651,5.05042495 Z M21.900039,22.7458791 L18.1378324,26.286924 C18.0607641,26.3593528 17.9603899,26.4303626 17.8495906,26.4979883 L17.8495906,23.4000858 C17.8495906,23.1687719 17.9428694,22.960655 18.0967329,22.805809 C18.251961,22.6519454 18.4600234,22.5583938 18.6913372,22.5583938 L22.059961,22.5583938 C22.0077271,22.6293489 21.9542378,22.6946823 21.900039,22.7458791 Z M22.562924,21.2115556 C22.562924,21.3115478 22.544694,21.4273684 22.5171306,21.5482105 L18.6912827,21.5482105 C17.6694737,21.55023 16.8415361,22.3781676 16.839462,23.4000312 L16.839462,26.8945185 C16.7192749,26.918807 16.6034542,26.9352359 16.502807,26.9352359 L5.05561014,26.9352359 L5.05561014,26.9352904 C4.87276413,26.9352904 4.71895517,26.7810994 4.71895517,26.5986355 L4.71895517,5.05037037 C4.71895517,4.86790643 4.87281871,4.7137154 5.05561014,4.7137154 L22.2268694,4.7137154 C22.4093333,4.7137154 22.5635244,4.86790643 22.5635244,5.05037037 L22.562924,21.2115556 Z" id="Shape"></path>
                <path d="M18.5236101,8.41724756 L8.75957895,8.41724756 C8.48045224,8.41724756 8.25454191,8.64315789 8.25454191,8.9222846 C8.25454191,9.20141131 8.48050682,9.42732164 8.75957895,9.42732164 L18.5236101,9.42732164 C18.8024094,9.42732164 19.0286472,9.20141131 19.0286472,8.9222846 C19.0286472,8.64315789 18.8024094,8.41724756 18.5236101,8.41724756 Z" id="Shape"></path>
                <path d="M18.5236101,15.1511111 L8.75957895,15.1511111 C8.48045224,15.1511111 8.25454191,15.3770214 8.25454191,15.6561481 C8.25454191,15.9352749 8.48050682,16.1611852 8.75957895,16.1611852 L18.5236101,16.1611852 C18.8024094,16.1611852 19.0286472,15.9352749 19.0286472,15.6561481 C19.0286472,15.3769669 18.8024094,15.1511111 18.5236101,15.1511111 Z" id="Shape"></path>
                <path d="M14.1466589,18.5180429 L8.75963353,18.5180429 C8.48050682,18.5180429 8.25459649,18.7439532 8.25459649,19.0230799 C8.25459649,19.3022066 8.48050682,19.528117 8.75963353,19.528117 L14.1466589,19.528117 C14.4254581,19.528117 14.6513684,19.3022066 14.6513684,19.0230799 C14.6513684,18.7439532 14.4254581,18.5180429 14.1466589,18.5180429 Z" id="Shape"></path>
                <path d="M18.5236101,11.7841793 L8.75957895,11.7841793 C8.48045224,11.7841793 8.25454191,12.0100897 8.25454191,12.2892164 C8.25454191,12.5683431 8.48050682,12.7942534 8.75957895,12.7942534 L18.5236101,12.7942534 C18.8024094,12.7942534 19.0286472,12.5683431 19.0286472,12.2892164 C19.0286472,12.0100897 18.8024094,11.7841793 18.5236101,11.7841793 Z" id="Shape"></path>
            </g>
        </g>
    </g>
</svg>