<?xml version="1.0" encoding="UTF-8"?>
<svg width="29px" height="36px" viewBox="0 0 29 36" version="1.1" xmlns="http://www.w3.org/2000/svg" xmlns:xlink="http://www.w3.org/1999/xlink">
    <!-- Generator: Sketch 46.2 (44496) - http://www.bohemiancoding.com/sketch -->
    <title>Shape</title>
    <desc>Created with Sketch.</desc>
    <defs></defs>
    <g id="Page-1" stroke="none" stroke-width="1" fill="none" fill-rule="evenodd">
        <g id="First-Login-Authentication" transform="translate(-683.000000, -236.000000)" fill-rule="nonzero" fill="#9B9B9B">
            <g id="padlock" transform="translate(683.000000, 236.000000)">
                <path d="M28.2486364,16.7603303 C27.7801545,16.2919364 27.2116667,16.0579152 26.5422939,16.0579152 L25.7398727,16.0579152 L25.7398727,11.2403121 C25.7398727,8.16262121 24.636203,5.52001818 22.4281606,3.31206364 C20.2202939,1.10402121 17.5779545,0 14.4998242,0 C11.4217818,0 8.77891515,1.10402121 6.57122424,3.31197576 C4.36318182,5.52001818 3.25951212,8.16253333 3.25951212,11.2403121 L3.25951212,16.0579152 L2.45673939,16.0579152 C1.78789394,16.0579152 1.21905455,16.2919364 0.750660606,16.7603303 C0.282266667,17.2283727 0.0481575758,17.7972121 0.0481575758,18.4666727 L0.0481575758,32.9185152 C0.0481575758,33.5873606 0.282354545,34.1563758 0.750660606,34.6248576 C1.21905455,35.0928121 1.78789394,35.327097 2.45673939,35.327097 L26.5429091,35.327097 C27.2122818,35.327097 27.7806818,35.0930758 28.2492515,34.6248576 C28.7172061,34.1563758 28.9517545,33.5873606 28.9517545,32.9185152 L28.9517545,18.4664091 C28.9521061,17.7974758 28.7172061,17.2287242 28.2486364,16.7603303 Z M20.922797,16.0579152 L8.07685152,16.0579152 L8.07685152,11.2403121 C8.07685152,9.46735758 8.70421818,7.9534697 9.95868788,6.69917576 C11.2133333,5.44470606 12.7269576,4.81760303 14.5000879,4.81760303 C16.2733939,4.81760303 17.7866667,5.44461818 19.0414,6.69917576 C20.2955182,7.95338182 20.922797,9.46735758 20.922797,11.2403121 L20.922797,16.0579152 Z" id="Shape"></path>
            </g>
        </g>
    </g>
</svg>