<?xml version="1.0" encoding="UTF-8"?>
<svg width="64px" height="64px" viewBox="0 0 64 64" version="1.1" xmlns="http://www.w3.org/2000/svg" xmlns:xlink="http://www.w3.org/1999/xlink">
    <!-- Generator: Sketch 46.2 (44496) - http://www.bohemiancoding.com/sketch -->
    <title>Group 3</title>
    <desc>Created with Sketch.</desc>
    <defs>
        <circle id="path-1" cx="27" cy="27" r="27"></circle>
        <filter x="-15.7%" y="-8.3%" width="131.5%" height="131.5%" filterUnits="objectBoundingBox" id="filter-2">
            <feMorphology radius="0.5" operator="dilate" in="SourceAlpha" result="shadowSpreadOuter1"></feMorphology>
            <feOffset dx="0" dy="4" in="shadowSpreadOuter1" result="shadowOffsetOuter1"></feOffset>
            <feGaussianBlur stdDeviation="2" in="shadowOffsetOuter1" result="shadowBlurOuter1"></feGaussianBlur>
            <feComposite in="shadowBlurOuter1" in2="SourceAlpha" operator="out" result="shadowBlurOuter1"></feComposite>
            <feColorMatrix values="0 0 0 0 0   0 0 0 0 0   0 0 0 0 0  0 0 0 0.189764493 0" type="matrix" in="shadowBlurOuter1"></feColorMatrix>
        </filter>
    </defs>
    <g id="Page-1" stroke="none" stroke-width="1" fill="none" fill-rule="evenodd">
        <g id="Member-Authentication" transform="translate(-743.000000, -384.000000)">
            <g id="Group-4" transform="translate(473.000000, 238.000000)">
                <g id="Group-3" transform="translate(275.000000, 147.000000)">
                    <g id="Oval-3">
                        <use fill="black" fill-opacity="1" filter="url(#filter-2)" xlink:href="#path-1"></use>
                        <use stroke="#2A79FF" stroke-width="1" fill="#FFFFFF" fill-rule="evenodd" xlink:href="#path-1"></use>
                    </g>
                    <rect id="Rectangle" x="14" y="9" width="27" height="27"></rect>
                    <g id="photo-camera" transform="translate(14.000000, 15.000000)" fill-rule="nonzero" fill="#2A79FF">
                        <path d="M23.9204333,4.48979592 L20.2267,4.48979592 L18.4933667,0 L7.50663333,0 L5.7733,4.48979592 L5.2,4.48979592 L5.2,2.24489796 L2.6,2.24489796 L2.6,4.48979592 L2.07956667,4.48979592 C0.932533333,4.48979592 0,5.456 0,6.64444898 L0,19.8300816 C0,21.0266122 0.939466667,22 2.0943,22 L23.9057,22 C25.0605333,22 26,21.0266122 26,19.8300816 L26,6.64444898 C26,5.456 25.0674667,4.48979592 23.9204333,4.48979592 Z M3.46666667,3.14285714 L4.33333333,3.14285714 L4.33333333,4.48979592 L3.46666667,4.48979592 L3.46666667,3.14285714 Z M25.1333333,19.8300816 C25.1333333,20.5318367 24.5825667,21.1020408 23.9057,21.1020408 L2.0943,21.1020408 C1.41743333,21.1020408 0.866666667,20.5313878 0.866666667,19.8300816 L0.866666667,6.64444898 C0.866666667,5.95167347 1.41093333,5.3877551 2.07956667,5.3877551 L2.6,5.3877551 L5.2,5.3877551 L6.36003333,5.3877551 L8.09336667,0.897959184 L17.9066333,0.897959184 L19.6399667,5.3877551 L23.9204333,5.3877551 C24.5890667,5.3877551 25.1333333,5.95167347 25.1333333,6.64444898 L25.1333333,19.8300816 Z" id="Shape"></path>
                        <path d="M13,4.23076923 C8.60667563,4.23076923 5.03225806,7.83691239 5.03225806,12.2692308 C5.03225806,16.7015491 8.60667563,20.3076923 13,20.3076923 C17.3933244,20.3076923 20.9677419,16.7015491 20.9677419,12.2692308 C20.9677419,7.83691239 17.3933244,4.23076923 13,4.23076923 Z M13,19.4145299 C9.09492115,19.4145299 5.91756272,16.2089701 5.91756272,12.2692308 C5.91756272,8.32949145 9.09492115,5.12393162 13,5.12393162 C16.9050789,5.12393162 20.0824373,8.32949145 20.0824373,12.2692308 C20.0824373,16.2089701 16.9050789,19.4145299 13,19.4145299 Z" id="Shape"></path>
                        <path d="M13,6.76923077 C9.99388978,6.76923077 7.5483871,9.2364391 7.5483871,12.2692308 C7.5483871,15.3020224 9.99388978,17.7692308 13,17.7692308 C16.0061102,17.7692308 18.4516129,15.3020224 18.4516129,12.2692308 C18.4516129,9.2364391 16.0061102,6.76923077 13,6.76923077 Z M13,16.8525641 C10.4949839,16.8525641 8.45698925,14.7964808 8.45698925,12.2692308 C8.45698925,9.74198077 10.4949839,7.68589744 13,7.68589744 C15.5050161,7.68589744 17.5430108,9.74198077 17.5430108,12.2692308 C17.5430108,14.7964808 15.5050161,16.8525641 13,16.8525641 Z" id="Shape"></path>
                        <path d="M22.6451613,6.76923077 C21.7200645,6.76923077 20.9677419,7.52823077 20.9677419,8.46153846 C20.9677419,9.39484615 21.7200645,10.1538462 22.6451613,10.1538462 C23.5702581,10.1538462 24.3225806,9.39484615 24.3225806,8.46153846 C24.3225806,7.52823077 23.5702581,6.76923077 22.6451613,6.76923077 Z M22.6451613,9.30769231 C22.1826129,9.30769231 21.8064516,8.92819231 21.8064516,8.46153846 C21.8064516,7.99488462 22.1826129,7.61538462 22.6451613,7.61538462 C23.1077097,7.61538462 23.483871,7.99488462 23.483871,8.46153846 C23.483871,8.92819231 23.1077097,9.30769231 22.6451613,9.30769231 Z" id="Shape"></path>
                    </g>
                </g>
            </g>
        </g>
    </g>
</svg>