<?xml version="1.0" encoding="UTF-8"?>
<svg width="39px" height="39px" viewBox="0 0 39 39" version="1.1" xmlns="http://www.w3.org/2000/svg" xmlns:xlink="http://www.w3.org/1999/xlink">
    <!-- Generator: Sketch 46.2 (44496) - http://www.bohemiancoding.com/sketch -->
    <title>Group 8</title>
    <desc>Created with Sketch.</desc>
    <defs></defs>
    <g id="Symbols" stroke="none" stroke-width="1" fill="none" fill-rule="evenodd">
        <g id="lab" transform="translate(-7.000000, 0.000000)" fill-rule="nonzero" fill="#2979FF">
            <g id="Group-8" transform="translate(7.000000, 0.000000)">
                <g id="laboratory">
                    <path d="M38.7323142,3.22769285 C38.7323142,2.36525332 38.3959886,1.55445688 37.7866002,0.945714005 C37.1778573,0.336325595 36.3670609,0 35.5046214,0 C34.6421818,0 33.8313854,0.336325595 33.2226425,0.945714005 L29.1144351,5.05327593 L29.1137895,5.05263039 C28.3578639,4.2979958 27.1287584,4.29864134 26.3754149,5.05327593 L25.4619778,5.966713 C24.7073432,6.72134759 24.7073432,7.94916195 25.4619778,8.70508762 L25.9190191,9.16212893 L21.8108117,13.2703364 L17.2462084,17.8349396 C16.9938029,18.0873452 16.9938029,18.4953256 17.2462084,18.7477312 L15.4206254,20.5733142 C15.0552505,20.9386891 14.853197,21.4254251 14.853197,21.9425015 C14.853197,22.4602235 15.054605,22.9469596 15.4199798,23.3116888 C15.7853547,23.6770637 16.2720907,23.8791173 16.7898127,23.8791173 C17.3068891,23.8791173 17.7936251,23.6777092 18.159,23.3116888 L19.9845831,21.4861058 C20.2369886,21.7385114 20.644969,21.7385114 20.8973746,21.4861058 L25.4619778,16.9215025 L29.5701853,12.8132951 L30.0272266,13.2703364 C30.4048667,13.6479765 30.9012858,13.8364737 31.3964139,13.8364737 C31.8928331,13.8364737 32.3886067,13.6479765 32.7656012,13.2703364 L33.6790383,12.3568993 C34.4336729,11.6022647 34.4336729,10.3744504 33.6790383,9.6185247 L37.7866002,5.51031724 C38.3959886,4.90092883 38.7323142,4.09013238 38.7323142,3.22769285 Z M20.4409788,20.1169185 C20.1885732,19.8645129 19.7805929,19.8645129 19.5281873,20.1169185 L17.2462084,22.3988973 C17.0015493,22.6429109 16.5774305,22.644202 16.3334169,22.3982518 C16.2114101,22.2768905 16.1442741,22.1155059 16.1442741,21.9425015 C16.1442741,21.7701427 16.2114101,21.6081126 16.3334169,21.4861058 L18.6153957,19.2041269 C18.8678013,18.9517213 18.8678013,18.543741 18.6153957,18.2913354 L22.2672074,14.6395237 L24.0927905,16.4651068 L20.4409788,20.1169185 Z M25.0055821,15.5523152 L23.179999,13.7267322 L26.8318107,10.0749205 L28.6573937,11.9005035 L25.0055821,15.5523152 Z M32.7656012,11.4434622 L31.8521641,12.3568993 C31.6010496,12.6073683 31.1917782,12.6093049 30.9393726,12.3562538 L30.0265811,11.4434622 L27.2882064,8.70508762 L26.3754149,7.79229608 C26.1236549,7.54118158 26.1236549,7.13126459 26.3747694,6.87950454 L27.2882064,5.96606747 C27.540612,5.71495296 27.9485924,5.71495296 28.200998,5.96606747 L32.7649557,10.5306707 C33.0173613,10.7824307 33.0173613,11.1917022 32.7656012,11.4434622 Z M36.8738087,4.59688016 L32.7662467,8.70508762 L30.0272266,5.96606747 L34.1354341,1.85850554 C34.8668293,1.12711034 36.1424135,1.12711034 36.8738087,1.85850554 C37.239829,2.22388037 37.4412371,2.70997092 37.4412371,3.22769285 C37.4412371,3.74541478 37.239829,4.23150533 36.8738087,4.59688016 Z" id="Shape"></path>
                    <path d="M22.59385,32.2769285 L0.64553857,32.2769285 C0.288555741,32.2769285 0,32.5654843 0,32.9224671 L0,34.2135442 C0,35.0540354 0.54160686,35.7641279 1.29107714,36.0313808 L1.29107714,36.7956985 C1.29107714,37.8634193 2.15997206,38.7323142 3.22769285,38.7323142 L20.0116957,38.7323142 C21.0794165,38.7323142 21.9483114,37.8634193 21.9483114,36.7956985 L21.9483114,36.0313808 C22.6977817,35.7641279 23.2393885,35.0540354 23.2393885,34.2135442 L23.2393885,32.9224671 C23.2393885,32.5654843 22.9508328,32.2769285 22.59385,32.2769285 Z M20.6572342,36.7956985 C20.6572342,37.1520358 20.368033,37.4412371 20.0116957,37.4412371 L3.22769285,37.4412371 C2.87135556,37.4412371 2.58215428,37.1520358 2.58215428,36.7956985 L2.58215428,36.1501599 L20.6572342,36.1501599 L20.6572342,36.7956985 Z M21.9483114,34.2135442 C21.9483114,34.5698815 21.6591101,34.8590828 21.3027728,34.8590828 L1.93661571,34.8590828 C1.58027842,34.8590828 1.29107714,34.5698815 1.29107714,34.2135442 L1.29107714,33.5680057 L21.9483114,33.5680057 L21.9483114,34.2135442 Z" id="Shape"></path>
                    <path d="M14.2018485,25.8215428 C12.7777905,25.8215428 11.6196943,26.979639 11.6196943,28.4036971 C11.6196943,29.8277552 12.7777905,30.9858514 14.2018485,30.9858514 C15.6259066,30.9858514 16.7840028,29.8277552 16.7840028,28.4036971 C16.7840028,26.979639 15.6259066,25.8215428 14.2018485,25.8215428 Z M14.2018485,29.6947742 C13.4898195,29.6947742 12.9107714,29.1157261 12.9107714,28.4036971 C12.9107714,27.691668 13.4898195,27.1126199 14.2018485,27.1126199 C14.9138776,27.1126199 15.4929257,27.691668 15.4929257,28.4036971 C15.4929257,29.1157261 14.9138776,29.6947742 14.2018485,29.6947742 Z" id="Shape"></path>
                    <path d="M5.80984713,16.7840028 C4.74212634,16.7840028 3.87323142,17.6528977 3.87323142,18.7206185 C3.87323142,19.7883393 4.74212634,20.6572342 5.80984713,20.6572342 C6.87756793,20.6572342 7.74646284,19.7883393 7.74646284,18.7206185 C7.74646284,17.6528977 6.87756793,16.7840028 5.80984713,16.7840028 Z M5.80984713,19.3661571 C5.45350984,19.3661571 5.16430856,19.0769558 5.16430856,18.7206185 C5.16430856,18.3642812 5.45350984,18.07508 5.80984713,18.07508 C6.16618442,18.07508 6.4553857,18.3642812 6.4553857,18.7206185 C6.4553857,19.0769558 6.16618442,19.3661571 5.80984713,19.3661571 Z" id="Shape"></path>
                    <rect id="Rectangle-path" x="12.9107714" y="11.6196943" width="1.29107714" height="1.29107714"></rect>
                    <path d="M38.0867756,15.4929257 L29.0492357,15.4929257 C28.6922528,15.4929257 28.4036971,15.7814814 28.4036971,16.1384643 L28.4036971,18.7206185 C28.4036971,19.5611098 28.945304,20.2712022 29.6947742,20.5384552 L29.6947742,23.8849271 L29.6947742,27.1126199 L27.7581585,27.1126199 C26.6904377,27.1126199 25.8215428,27.9815149 25.8215428,29.0492357 L25.8215428,38.7323142 L27.1126199,38.7323142 L27.1126199,29.0492357 C27.1126199,28.6928984 27.4018212,28.4036971 27.7581585,28.4036971 L29.6947742,28.4036971 L29.6947742,34.8590828 C29.6947742,36.9951699 31.4319185,38.7323142 33.5680057,38.7323142 C35.7040928,38.7323142 37.4412371,36.9951699 37.4412371,34.8590828 L37.4412371,23.8849271 L37.4412371,20.5384552 C38.1907074,20.2712022 38.7323142,19.5611098 38.7323142,18.7206185 L38.7323142,16.1384643 C38.7323142,15.7814814 38.4437585,15.4929257 38.0867756,15.4929257 Z M36.1501599,34.8590828 C36.1501599,36.2831409 34.9920637,37.4412371 33.5680057,37.4412371 C32.1439476,37.4412371 30.9858514,36.2831409 30.9858514,34.8590828 L30.9858514,28.4036971 L33.5680057,28.4036971 L33.5680057,27.1126199 L30.9858514,27.1126199 L30.9858514,24.5304657 L36.1501599,24.5304657 L36.1501599,34.8590828 Z M36.1501599,23.2393885 L30.9858514,23.2393885 L30.9858514,20.6572342 L36.1501599,20.6572342 L36.1501599,23.2393885 Z M37.4412371,18.7206185 C37.4412371,19.0769558 37.1520358,19.3661571 36.7956985,19.3661571 L30.3403128,19.3661571 C29.9839755,19.3661571 29.6947742,19.0769558 29.6947742,18.7206185 L29.6947742,16.7840028 L37.4412371,16.7840028 L37.4412371,18.7206185 Z" id="Shape"></path>
                </g>
            </g>
        </g>
    </g>
</svg>