<?xml version="1.0" encoding="UTF-8"?>
<svg width="28px" height="28px" viewBox="0 0 28 28" version="1.1" xmlns="http://www.w3.org/2000/svg" xmlns:xlink="http://www.w3.org/1999/xlink">
    <!-- Generator: Sketch 46.2 (44496) - http://www.bohemiancoding.com/sketch -->
    <title>test(1)</title>
    <desc>Created with Sketch.</desc>
    <defs></defs>
    <g id="Symbols" stroke="none" stroke-width="1" fill="none" fill-rule="evenodd">
        <g id="peme" transform="translate(-15.000000, -7.000000)" fill-rule="nonzero" fill="#2979FF">
            <g id="test(1)" transform="translate(15.000000, 7.000000)">
                <path d="M20.7677679,5.22003125 L15.9463393,0.24346875 C15.7986964,0.090234375 15.5874643,0 15.375,0 L0.803571429,0 C0.359785714,0 0,0.36728125 0,0.8203125 L0,27.1796875 C0,27.6327187 0.359785714,28 0.803571429,28 L20.1964286,28 C20.6402143,28 21,27.6327187 21,27.1796875 L21,5.796875 C21,5.58911719 20.9194821,5.37665625 20.7677679,5.22003125 Z M16.1785714,2.81629688 L18.2714464,4.9765625 L16.1785714,4.9765625 L16.1785714,2.81629688 Z M19.3928571,26.359375 L1.60714286,26.359375 L1.60714286,1.640625 L14.5714286,1.640625 L14.5714286,5.796875 C14.5714286,6.24990625 14.9312143,6.6171875 15.375,6.6171875 L19.3928571,6.6171875 L19.3928571,26.359375 Z" id="Shape"></path>
                <path d="M18.1393443,8 L12.8606557,8 C12.3853443,8 12,8.44773333 12,9 C12,9.55226667 12.3853443,10 12.8606557,10 L18.1393443,10 C18.6146557,10 19,9.55226667 19,9 C19,8.44773333 18.6146557,8 18.1393443,8 Z" id="Shape"></path>
                <path d="M18.1393443,15 L12.8606557,15 C12.3853443,15 12,15.4477333 12,16 C12,16.5522667 12.3853443,17 12.8606557,17 L18.1393443,17 C18.6146557,17 19,16.5522667 19,16 C19,15.4477333 18.6146557,15 18.1393443,15 Z" id="Shape"></path>
                <path d="M18.1393443,21 L12.8606557,21 C12.3853443,21 12,21.4477333 12,22 C12,22.5522667 12.3853443,23 12.8606557,23 L18.1393443,23 C18.6146557,23 19,22.5522667 19,22 C19,21.4477333 18.6146557,21 18.1393443,21 Z" id="Shape"></path>
                <path d="M10.7437125,5.24408994 C10.4020542,4.91864595 9.84800417,4.91864595 9.50634583,5.24403438 L6.62502917,7.98814168 L5.4937125,6.91075429 C5.15205417,6.5853103 4.59800417,6.5853103 4.2562875,6.91075429 C3.91457083,7.23619828 3.91457083,7.76380866 4.2562875,8.08925265 L6.0062875,9.75591701 C6.34794583,10.081361 6.90199583,10.081361 7.2437125,9.75591701 L10.7437125,6.4225883 C11.0854292,6.09714431 11.0854292,5.56953393 10.7437125,5.24408994 Z" id="Shape"></path>
                <path d="M10.7437125,12.2440844 C10.4020542,11.9186385 9.84800417,11.9186385 9.50634583,12.2440844 L6.62502917,14.9882069 L5.4937125,13.910758 C5.15205417,13.5853122 4.59800417,13.5853122 4.2562875,13.910758 C3.91457083,14.2362038 3.91457083,14.7638171 4.2562875,15.0892629 L6.0062875,16.7559365 C6.34794583,17.0813267 6.90199583,17.0813823 7.2437125,16.7559365 L10.7437125,13.4225893 C11.0854292,13.0971435 11.0854292,12.5695302 10.7437125,12.2440844 Z" id="Shape"></path>
                <path d="M10.7437125,18.2440844 C10.4020542,17.9186385 9.84800417,17.9186385 9.50634583,18.2440844 L6.62502917,20.9882069 L5.4937125,19.910758 C5.15205417,19.5853122 4.59800417,19.5853122 4.2562875,19.910758 C3.91457083,20.2362038 3.91457083,20.7638171 4.2562875,21.0892629 L6.0062875,22.7559365 C6.34794583,23.0813267 6.90199583,23.0813823 7.2437125,22.7559365 L10.7437125,19.4225893 C11.0854292,19.0971435 11.0854292,18.5695302 10.7437125,18.2440844 Z" id="Shape"></path>
                <path d="M25.5,5 C24.1215,5 23,6.08699231 23,7.42307692 C23,8.00111538 23,21.3336923 23,21.9615385 C23,22.0869462 23.0301111,22.2105769 23.088,22.3227385 L24.7546667,25.5535077 C24.8957778,25.8271538 25.1843333,26 25.5,26 C25.8156667,26 26.1042222,25.8271538 26.2453333,25.5535077 L27.912,22.3227385 C27.9698889,22.2105769 28,22.0868923 28,21.9615385 C28,21.4384769 28,7.99508462 28,7.42307692 C28,6.08699231 26.8785,5 25.5,5 Z M26.3333333,21.7708692 L25.5,23.3862538 L24.6666667,21.7708692 L24.6666667,21.1538462 L26.3333333,21.1538462 L26.3333333,21.7708692 Z M26.3333333,19.5384615 L24.6666667,19.5384615 L24.6666667,13.0769231 L26.3333333,13.0769231 L26.3333333,19.5384615 Z M26.3333333,11.4615385 L24.6666667,11.4615385 L24.6666667,9.84615385 L26.3333333,9.84615385 L26.3333333,11.4615385 Z M26.3333333,8.23076923 L24.6666667,8.23076923 L24.6666667,7.42307692 C24.6666667,6.97771538 25.0405,6.61538462 25.5,6.61538462 C25.9595,6.61538462 26.3333333,6.97771538 26.3333333,7.42307692 L26.3333333,8.23076923 Z" id="Shape"></path>
            </g>
        </g>
    </g>
</svg>