<?xml version="1.0" encoding="UTF-8"?>
<svg width="25px" height="24px" viewBox="0 0 25 24" version="1.1" xmlns="http://www.w3.org/2000/svg" xmlns:xlink="http://www.w3.org/1999/xlink">
    <!-- Generator: Sketch 46.2 (44496) - http://www.bohemiancoding.com/sketch -->
    <title>Group Copy</title>
    <desc>Created with Sketch.</desc>
    <defs></defs>
    <g id="Symbols" stroke="none" stroke-width="1" fill-rule="evenodd">
        <g id="sidemenu" class="svg-fill" transform="translate(-38.000000, -275.000000)" fill-rule="nonzero" fill="#ABABAB">
            <g id="Group-Copy" transform="translate(38.000000, 275.000000)">
                <g id="wedding-planning-copy">
                    <path d="M24.4629238,0 L5.97542953,0 C5.67878817,0 5.4384249,0.239283646 5.4384249,0.534592596 L5.4384249,11.1625072 L0.537004631,11.1625072 C0.240363273,11.1625072 0,11.4017909 0,11.6970998 L0,20.7583018 C0,22.5456943 1.4606526,24 3.25618128,24 C3.30243528,24 21.7436755,24 21.7436755,24 C23.5391326,24 25,22.5457656 25,20.7583018 L25,0.534592596 C24.9999284,0.239283646 24.7595651,0 24.4629238,0 Z M1.07400926,20.7583018 L1.07400926,12.2316924 L5.4384249,12.2316924 L5.4384249,20.7583018 C5.4384249,21.9561456 4.45950126,22.9308148 3.25610968,22.9308148 C2.0529329,22.9308148 1.07400926,21.9561456 1.07400926,20.7583018 Z M23.9259191,20.7583018 C23.9259191,21.9561456 22.9469955,22.9308148 21.7436039,22.9308148 L5.67098371,22.9308148 C6.19359661,22.3555932 6.51243416,21.5931929 6.51243416,20.7583018 L6.51243416,1.06918519 L23.9259191,1.06918519 L23.9259191,20.7583018 Z" id="Shape"></path>
                    <path d="M14.5399228,6 L21.4600772,6 C21.7583306,6 22,5.7762 22,5.5 C22,5.2238 21.7583306,5 21.4600772,5 L14.5399228,5 C14.2416694,5 14,5.2238 14,5.5 C14,5.7762 14.2417414,6 14.5399228,6 Z" id="Shape"></path>
                    <path d="M14.5399228,12 L21.4600772,12 C21.7583306,12 22,11.7762 22,11.5 C22,11.2238 21.7583306,11 21.4600772,11 L14.5399228,11 C14.2416694,11 14,11.2238 14,11.5 C14,11.7762 14.2417414,12 14.5399228,12 Z" id="Shape"></path>
                    <path d="M14.5399228,17 L21.4600772,17 C21.7583306,17 22,16.7762 22,16.5 C22,16.2238 21.7583306,16 21.4600772,16 L14.5399228,16 C14.2416694,16 14,16.2238 14,16.5 C14,16.7761333 14.2417414,17 14.5399228,17 Z" id="Shape"></path>
                    <path d="M9.54154966,6.84364645 C9.65829891,6.94344659 9.82074339,7 9.99051556,7 C9.99216224,7 9.99389125,7 9.99570259,7 C10.1674508,6.9988024 10.3308009,6.93998685 10.4466445,6.83745884 L13.8385477,3.83540416 C14.0685058,3.63187841 14.0506394,3.31624384 13.7988628,3.13041599 C13.5470039,2.9447212 13.1564126,2.95902588 12.9264545,3.1624851 L9.98285853,5.7676679 L9.0665663,4.98357148 C8.83224447,4.7831728 8.44132386,4.77425733 8.19349929,4.96341185 C7.94551006,5.15263291 7.93447734,5.46840055 8.16855217,5.66879923 L9.54154966,6.84364645 Z" id="Shape"></path>
                    <path d="M12.926508,9.16258591 L9.98288007,11.7676575 L9.06641322,10.9836876 C8.83225351,10.7831542 8.44132865,10.7742386 8.1935014,10.9635278 C7.94550947,11.1527505 7.93447663,11.4685207 8.168554,11.6689211 L9.54156642,12.8436451 C9.65831693,12.9434461 9.82076317,13 9.99053719,13 C9.99218389,13 9.99391291,13 9.99572428,13 C10.1674743,12.9988024 10.3308263,12.9399863 10.4466711,12.8374575 L13.8386111,9.83551063 C14.0684071,9.63198317 14.0507052,9.31634595 13.7989259,9.13051653 C13.5471465,8.94468711 13.1564687,8.95899192 12.926508,9.16258591 Z" id="Shape"></path>
                    <path d="M12.926508,14.1625635 L9.98288007,16.7676503 L9.06641322,15.9836758 C8.83225351,15.7831412 8.44132865,15.7741591 8.1935014,15.9635159 C7.94550947,16.1527397 7.93447663,16.4685118 8.168554,16.6689133 L9.54156642,17.8436442 C9.65831693,17.9434458 9.82076317,18 9.99053719,18 C9.99218389,18 9.99391291,18 9.99572428,18 C10.1674743,17.9988024 10.3308263,17.939986 10.4466711,17.8374565 L13.8386111,14.8354921 C14.0684071,14.6319635 14.0507052,14.3163244 13.7989259,14.1304939 C13.5470642,13.9446634 13.1564687,13.9590348 12.926508,14.1625635 Z" id="Shape"></path>
                </g>
            </g>
        </g>
    </g>
</svg>