<?xml version="1.0" encoding="UTF-8"?>
<svg width="41px" height="53px" viewBox="0 0 41 53" version="1.1" xmlns="http://www.w3.org/2000/svg" xmlns:xlink="http://www.w3.org/1999/xlink">
    <!-- Generator: Sketch 46.2 (44496) - http://www.bohemiancoding.com/sketch -->
    <title>sms-message</title>
    <desc>Created with Sketch.</desc>
    <defs></defs>
    <g id="Page-1" stroke="none" stroke-width="1" fill="none" fill-rule="evenodd">
        <g id="LOA-confirmation" transform="translate(-152.000000, -291.000000)" fill-rule="nonzero" fill="#5B5B5B">
            <g id="sms-message" transform="translate(152.000000, 291.000000)">
                <path d="M24.1445535,33.3439595 C23.6720678,33.3439595 23.289221,33.7350862 23.289221,34.2175302 L23.289221,43.0198619 L1.71066497,43.0198619 L1.71066497,20.9802545 L8.29558466,20.9802545 C8.76807032,20.9802545 9.15091714,20.5891278 9.15091714,20.1066838 C9.15091714,19.6242398 8.76807032,19.233113 8.29558466,19.233113 L1.71066497,19.233113 L1.71066497,15.5329003 C1.71066497,13.9968135 2.9342466,12.7471415 4.43837729,12.7471415 L5.66994202,12.7471415 C6.14242768,12.7471415 6.5252745,12.3560147 6.5252745,11.8735707 C6.5252745,11.3911267 6.14242768,11 5.66994202,11 L4.43837729,11 C1.99109998,11 0,13.0334397 0,15.5329003 L0,48.4670997 C0,50.9665603 1.99109998,53 4.43837729,53 L20.5616227,53 C23.0089,53 25,50.9665603 25,48.4670997 L25,34.2175302 C24.999886,33.7350862 24.6170391,33.3439595 24.1445535,33.3439595 Z M20.5615087,51.252975 L4.43837729,51.252975 C2.93436064,51.252975 1.71066497,50.0033029 1.71066497,48.4672161 L1.71066497,44.7670034 L23.289335,44.7670034 L23.289335,48.4672161 C23.289221,50.0033029 22.0656394,51.252975 20.5615087,51.252975 Z" id="Shape"></path>
                <path d="M17.1439871,12.0884448 C15.8435121,11.8688789 15.7886599,11.737681 15.7886599,11.462116 C15.7886599,10.9748619 16.5810362,10.8461254 16.9999404,10.8461254 C17.6730727,10.8461254 18.1072401,11.0802142 18.1884453,11.3114721 C18.3566985,11.7907263 18.8695669,12.0387225 19.3339031,11.8648175 C19.7983584,11.6911586 20.0383966,11.1618129 19.8701433,10.6825587 C19.5057336,9.64466701 18.4059463,9 16.9999404,9 C15.2335791,9 14,10.0124152 14,11.462116 C14,13.4283626 15.7873482,13.7301426 16.8551782,13.9104475 C18.1564879,14.1301365 18.2113401,14.2615806 18.2113401,14.537884 C18.2113401,15.0251381 17.4188445,15.1538746 16.9999404,15.1538746 C16.326808,15.1538746 15.8925214,14.9196628 15.8114355,14.6882817 C15.6434207,14.2087814 15.1303138,13.9611544 14.6662162,14.134321 C14.2017608,14.3077337 13.9614842,14.8369564 14.129499,15.3163336 C14.4935509,16.3548407 15.5933382,17 16.9999404,17 C18.7663016,17 20,15.9875848 20,14.537884 C20.0001192,12.5706528 18.2121748,12.2687497 17.1439871,12.0884448 Z" id="Shape"></path>
                <path d="M33.1439871,12.0884448 C31.8435121,11.8688789 31.7886599,11.737681 31.7886599,11.462116 C31.7886599,10.9748619 32.5810362,10.8461254 32.9999404,10.8461254 C33.6729535,10.8461254 34.1072401,11.0803372 34.1885645,11.3115952 C34.3568178,11.7908494 34.8695669,12.0389686 35.3340223,11.8648175 C35.7984777,11.6910355 36.0383966,11.1616898 35.870024,10.6824357 C35.5054952,9.64466701 34.4058271,9 32.9999404,9 C31.2335791,9 30,10.0124152 30,11.462116 C30,13.4283626 31.7873482,13.7301426 32.8551782,13.9104475 C34.1564879,14.1301365 34.2113401,14.2615806 34.2113401,14.537884 C34.2113401,15.0251381 33.4188445,15.1538746 32.9999404,15.1538746 C32.3266888,15.1538746 31.8924022,14.9195397 31.811197,14.6881586 C31.6431822,14.2089045 31.1306715,13.9605391 30.6659777,14.134321 C30.2015223,14.3078568 29.9613649,14.8370794 30.129499,15.3164567 C30.4936701,16.3549638 31.5934575,17 32.9999404,17 C34.7663016,17 36,15.9875848 36,14.537884 C36,12.5706528 34.2121748,12.2687497 33.1439871,12.0884448 Z" id="Shape"></path>
                <path d="M27.4047124,9.0571204 C27.0468116,8.92333807 26.6449773,9.02992087 26.3975173,9.32382354 L24.5,11.578185 L22.6024827,9.32382354 C22.3550227,9.02979779 21.9528243,8.923215 21.5952876,9.0571204 C21.2376296,9.19077966 21,9.53649682 21,9.9231979 L21,16.0769389 C21,16.5867148 21.407417,17 21.9102257,17 C22.4130344,17 22.8204515,16.5867148 22.8204515,16.0769389 L22.8204515,12.4264166 L23.807743,13.5993197 C23.9806859,13.8047315 24.2336073,13.9231295 24.5,13.9231295 C24.7663927,13.9231295 25.0193141,13.8048546 25.192257,13.5993197 L26.1795485,12.4264166 L26.1795485,16.0769389 C26.1795485,16.5867148 26.5869656,17 27.0897743,17 C27.592583,17 28,16.5867148 28,16.0769389 L28,9.9231979 C28,9.53649682 27.7623704,9.19090273 27.4047124,9.0571204 Z" id="Shape"></path>
                <path d="M36.0919396,3.81382228 C32.9866285,1.35437236 28.8699817,0 24.4999411,0 C20.1299005,0 16.0130179,1.35448989 12.9079425,3.81382228 C9.74299551,6.3206394 8,9.67172073 8,13.2498825 C8,19.530677 13.4175586,24.8870475 20.9818928,26.198284 C21.1195504,28.156441 20.4093407,30.1002586 19.0208608,31.4981194 C18.7697063,31.7509403 18.6956918,32.1294076 18.8329958,32.4578044 C18.9702999,32.7860837 19.292051,33 19.6488059,33 C23.6910846,33 27.1623434,30.1222379 27.9806285,26.2046309 C35.5648806,24.9045604 41,19.5412553 41,13.2498825 C41.0001179,9.67183827 39.2570045,6.3206394 36.0919396,3.81382228 Z M27.0719467,24.5611189 C26.611595,24.6245886 26.279001,25.0324401 26.3109404,25.4948284 C26.3111761,25.4989422 26.3115297,25.5029384 26.3118833,25.5070522 C25.9050389,28.1021392 24.0472502,30.1778326 21.646138,30.9313587 C22.5682556,29.3024213 22.9471677,27.3906911 22.6856417,25.4996474 C22.6857596,25.4978843 22.6858774,25.4962388 22.6859953,25.4945933 C22.7179347,25.0323225 22.3853407,24.6243535 21.9251069,24.5608839 C14.8807603,23.5899154 9.76798131,18.8329807 9.76798131,13.25 C9.76798131,6.91607898 16.3767263,1.76316408 24.5000589,1.76316408 C32.6235094,1.76316408 39.2323723,6.91607898 39.2323723,13.25 C39.2322544,18.833921 34.118179,23.5910907 27.0719467,24.5611189 Z" id="Shape"></path>
            </g>
        </g>
    </g>
</svg>