<?xml version="1.0" encoding="UTF-8"?>
<svg width="25px" height="24px" viewBox="0 0 25 24" version="1.1" xmlns="http://www.w3.org/2000/svg" xmlns:xlink="http://www.w3.org/1999/xlink">
    <!-- Generator: Sketch 46.2 (44496) - http://www.bohemiancoding.com/sketch -->
    <title>star(1)</title>
    <desc>Created with Sketch.</desc>
    <defs></defs>
    <g id="Symbols" stroke="none" stroke-width="1" fill="none" fill-rule="evenodd">
        <g id="sidemenu" transform="translate(-38.000000, -362.000000)" fill-rule="nonzero" fill="#ABABAB">
            <g id="Group-3" transform="translate(31.000000, 362.000000)">
                <g id="star(1)" transform="translate(7.000000, 0.000000)">
                    <path d="M24.9656981,8.83803012 C24.8836001,8.5916914 24.6680928,8.41573517 24.4064053,8.3755166 L16.607093,7.28961529 L13.0974024,0.377049067 C12.9793865,0.145792306 12.7382236,0 12.4765361,0 L12.4765361,0 C12.2148487,0 11.9736857,0.145792306 11.8556698,0.382076388 L8.39215938,7.31475189 L0.592847032,8.45092641 C0.331159578,8.49114498 0.115652263,8.66710121 0.0335542384,8.91343994 C-0.0485437863,9.15977866 0.0232919853,9.43125399 0.213143668,9.60721022 L5.87277625,14.9814162 L4.56433898,22.5927801 C4.51815884,22.8491734 4.6259125,23.1055668 4.84141981,23.2563864 C4.95943572,23.3418509 5.10310727,23.3870968 5.24677881,23.3870968 C5.35966359,23.3870968 5.46741725,23.3619602 5.57003978,23.3066596 L12.5329785,19.6920159 L19.5164417,23.2664411 C19.6190643,23.3167143 19.7268179,23.3418509 19.8345716,23.3418509 L19.8345716,23.3418509 C20.2142749,23.3418509 20.5272737,23.0351843 20.5272737,22.6631626 C20.5272737,22.607862 20.5221425,22.5575888 20.5067492,22.5073156 L19.1572629,14.9411977 L24.7809776,9.53682773 C24.9810915,9.35584417 25.0477962,9.08436885 24.9656981,8.83803012 Z M17.9360548,14.2222908 C17.7718587,14.3781377 17.7000229,14.6043672 17.741072,14.8255693 L18.9160999,21.4264416 L12.8511084,18.3245846 C12.6509944,18.2190109 12.4098315,18.2240382 12.2045864,18.3245846 L6.16011934,21.4616329 L7.2940983,14.8507059 C7.33001619,14.6295038 7.25818042,14.4083017 7.09398437,14.2524547 L2.18862739,9.58710093 L8.9565833,8.60174604 C9.18235287,8.56655479 9.37733568,8.43081713 9.47482708,8.22972429 L12.4816672,2.21202119 L15.5295564,8.21464233 C15.6321789,8.41573517 15.8271617,8.55147283 16.0529313,8.58666408 L22.8260184,9.5318004 L17.9360548,14.2222908 Z" id="Shape"></path>
                </g>
            </g>
        </g>
    </g>
</svg>